HIERARCHY
ROOT Hips
{
  OFFSET -32.5998 29.0326 120.673
  CHANNELS 6 Xposition Yposition Zposition Zrotation Xrotation Yrotation
  JOINT LeftUpLeg
  {
    OFFSET 8.64259 1.95398 -2.38835
    CHANNELS 3 Zrotation Xrotation Yrotation
    JOINT LeftLeg
    {
      OFFSET 43.7702 0 0
      CHANNELS 3 Zrotation Xrotation Yrotation
      JOINT LeftFoot
      {
        OFFSET 40.6238 0 0
        CHANNELS 3 Zrotation Xrotation Yrotation
        JOINT LeftToeBase
        {
          OFFSET 12.7242 0 0
          CHANNELS 3 Zrotation Xrotation Yrotation
          End Site
          {
            OFFSET 0 0 0
          }
        }
      }
    }
  }
  JOINT RightUpLeg
  {
    OFFSET -8.2249 1.95398 -2.59336
    CHANNELS 3 Zrotation Xrotation Yrotation
    JOINT RightLeg
    {
      OFFSET 43.5653 0 0
      CHANNELS 3 Zrotation Xrotation Yrotation
      JOINT RightFoot
      {
        OFFSET 40.6238 0 0
        CHANNELS 3 Zrotation Xrotation Yrotation
        JOINT RightToeBase
        {
          OFFSET 12.7242 0 0
          CHANNELS 3 Zrotation Xrotation Yrotation
          End Site
          {
            OFFSET 0 0 0
          }
        }
      }
    }
  }
  JOINT Spine
  {
    OFFSET 0.165834 0.87714 6.61349
    CHANNELS 3 Zrotation Xrotation Yrotation
    JOINT Spine1
    {
      OFFSET 7.38963 1.71661e-005 0
      CHANNELS 3 Zrotation Xrotation Yrotation
      JOINT Spine2
      {
        OFFSET 11.9445 1.14441e-005 0
        CHANNELS 3 Zrotation Xrotation Yrotation
        JOINT Spine3
        {
          OFFSET 14.7254 4.19617e-005 0
          CHANNELS 3 Zrotation Xrotation Yrotation
          JOINT Spine4
          {
            OFFSET 10.9679 0 0
            CHANNELS 3 Zrotation Xrotation Yrotation
            JOINT RightShoulder
            {
              OFFSET 2.46616 -1.6653 3.69651
              CHANNELS 3 Zrotation Xrotation Yrotation
              JOINT RightArm
              {
                OFFSET 13.0012 0 0
                CHANNELS 3 Zrotation Xrotation Yrotation
                JOINT RightForeArm
                {
                  OFFSET 28.7848 1.62311e-005 0
                  CHANNELS 3 Zrotation Xrotation Yrotation
                  JOINT RightHand
                  {
                    OFFSET 26.5688 1.62095e-005 0
                    CHANNELS 3 Zrotation Xrotation Yrotation
                    End Site
                    {
                      OFFSET 0 0 0
                    }
                  }
                }
              }
            }
            JOINT LeftShoulder
            {
              OFFSET 2.38034 -1.29275 -3.7523
              CHANNELS 3 Zrotation Xrotation Yrotation
              JOINT LeftArm
              {
                OFFSET 16.3182 6.07031e-005 0
                CHANNELS 3 Zrotation Xrotation Yrotation
                JOINT LeftForeArm
                {
                  OFFSET 27.0901 0 0
                  CHANNELS 3 Zrotation Xrotation Yrotation
                  JOINT LeftHand
                  {
                    OFFSET 24.5451 1.51738e-005 0
                    CHANNELS 3 Zrotation Xrotation Yrotation
                    End Site
                    {
                      OFFSET 0 0 0
                    }
                  }
                }
              }
            }
            JOINT Neck
            {
              OFFSET 5.0226 -0.0266342 0
              CHANNELS 3 Zrotation Xrotation Yrotation
              JOINT Head
              {
                OFFSET 6.69364 2.86102e-005 0
                CHANNELS 3 Zrotation Xrotation Yrotation
                End Site
                {
                  OFFSET 0 0 0
                }
              }
            }
          }
        }
      }
    }
  }
}
MOTION
Frames:	6
Frame Time:	0.0416667
4.96051 97.1206 -326.047 116.736 -49.0576 111.191 -169.366 9.48466 92.0665 -34.6643 62.3244 -14.8364 74.1342 20.5567 5.35193 16.3163 -9.32782 7.01911 -146.44 -20.3327 131.998 23.6806 63.466 -21.8991 80.8723 -4.41263 -0.588457 22.6015 0.212666 8.55463 -2.50026 8.68002 -89.6158 9.5425 -4.81177 1.12894 -2.1202 -4.75742 1.34006 -24.7271 -4.92807 -0.37294 -4.71442 -4.92807 -0.372936 91.3257 -28.88 -104.515 46.1979 -24.6697 -3.58496 -15.035 -15.9483 -29.4815 -10.4033 -0.253082 -2.45506 -85.4154 -46.5635 85.124 -30.5422 19.4608 9.3353 10.024 -2.11645 -19.3935 -3.47484 -0.110042 -2.50838 -5.10828 -1.87816 0.953423 -4.48775 -1.95336 -0.955628 
5.19796 96.6328 -325.632 113.03 -50.6335 106.236 -170.755 11.7295 84.1996 -30.7628 56.8128 -15.1074 73.4686 17.7293 4.51278 15.5253 -8.81993 5.43761 -149.92 -21.3513 129.344 26.837 59.8711 -25.7147 79.3257 -4.15592 0.180433 24.2901 -0.027939 7.17073 -2.69289 8.60179 -89.7644 9.70054 -5.26179 0.885417 -1.96011 -5.21771 1.11675 -24.5811 -5.28391 -0.741468 -4.56848 -5.28391 -0.741473 89.2135 -26.5535 -109.779 41.3216 -23.3534 -8.65252 -13.4248 -14.1447 -26.8636 -10.7524 -0.166871 -3.51543 -86.5074 -52.0336 84.2797 -27.6204 19.9472 7.57952 8.69979 -4.35747 -18.0811 -3.64841 -0.107475 -2.79395 -4.58171 -0.969492 6.12033 -2.41183 -1.59844 -2.3567 
5.45584 96.6791 -326.624 109.481 -59.6762 105.524 -175.132 17.1868 79.1853 -32.2671 41.0861 -5.82688 73.0766 11.0643 2.03924 16.0089 -8.90627 6.02069 -164.066 -24.5451 120.339 11.8731 41.7388 -17.7904 78.238 -3.49948 1.52843 26.8124 -0.90704 6.88784 -1.82584 8.24791 -90.1247 10.3817 -3.69435 0.0731407 -1.2845 -3.68755 0.235851 -23.8561 -3.54542 -1.04179 -3.84348 -3.54542 -1.0418 89.6834 -25.0906 -109.464 39.5896 -24.3698 -12.1283 -13.0613 -14.0194 -26.0913 -9.14522 -0.07919 -4.46082 -87.2827 -55.1805 83.6347 -26.7738 20.84 7.86761 7.81026 -6.1702 -18.2229 -3.7408 -0.117533 -2.29474 -2.80239 -0.559377 9.16241 -3.1642 -1.61877 -4.03679 
5.72215 96.7616 -325.737 119.8 -71.0269 115.714 -178.079 17.9765 77.1032 -31.8584 24.4722 -1.57731 68.8486 4.01536 0.582877 11.9028 -10.5859 5.18491 -176.943 -30.6941 105.04 1.605 21.9392 -4.36863 77.4239 -6.67889 1.72862 36.0925 -4.68019 8.90326 -0.665833 8.1814 -89.9746 10.5126 -1.31453 0.167828 -1.15766 -1.30587 0.225519 -23.6987 -1.30418 -0.23509 -3.68601 -1.30418 -0.235093 89.681 -24.9405 -109.537 40.2395 -26.0035 -12.9366 -12.1668 -11.9847 -25.3495 -5.13842 -0.0327966 -4.74129 -87.4325 -56.1096 83.5662 -27.4213 19.7808 9.62836 7.57463 -6.96452 -17.9496 -4.16511 -0.120489 -2.43598 -2.2835 -0.064 9.34321 -3.45312 -1.18099 -4.37133 
5.63941 97.7243 -321.975 142.807 -78.78 137.646 -179.061 16.7965 76.4315 -31.3131 16.4057 -0.664679 67.0935 2.11077 0.962925 8.45479 -13.0477 6.01887 172.965 -33.7167 92.8619 -0.272247 4.25669 -0.876765 68.695 -5.51693 -1.01505 41.7361 -6.30101 5.60298 0.277894 8.06161 -89.7258 10.7491 0.679934 0.482586 -0.921789 0.700516 0.452189 -23.4571 0.503455 0.664619 -3.44446 0.503474 0.664627 91.0326 -24.1934 -106.955 43.2511 -24.6376 -12.7394 -13.8301 -16.0317 -26.347 -11.3659 -0.230743 -2.92936 -87.7258 -57.4924 83.3691 -25.2187 20.1706 5.1772 7.06389 -6.7254 -7.79721 -3.93335 -0.0715696 -5.76152 -1.4721 -0.158417 9.82494 -4.32954 -1.35889 -5.58955 
5.73299 98.4259 -317.427 -177.505 -82.0667 175.259 -179.031 13.9611 75.1474 -29.4857 8.85282 -1.36819 69.6877 3.93575 -0.230756 8.56926 -12.8974 5.8936 162.798 -27.1375 79.5538 -10.4635 -10.8296 0.989736 56.7978 1.55199 -1.56273 62.2743 -12.1138 22.1781 0.800609 7.87106 -89.3334 11.1217 1.90309 1.14183 -0.548314 1.95149 1.05695 -23.0867 1.47198 1.661 -3.07408 1.47198 1.661 90.2301 -25.1067 -108.29 44.5361 -24.5597 -10.4856 -16.073 -19.8384 -27.4326 -7.83747 0.0173881 -5.71231 -87.776 -56.9113 83.2094 -24.3145 20.753 6.22054 6.08077 -10.414 -11.2041 -3.87345 -0.102448 -3.26895 -2.84253 -0.423439 7.80186 -3.96241 -1.29566 -4.26309 
